<?xml version="1.0" encoding="utf-8"?>
<!-- Generator: Adobe Illustrator 15.0.2, SVG Export Plug-In . SVG Version: 6.00 Build 0)  -->
<!DOCTYPE svg PUBLIC "-//W3C//DTD SVG 1.1//EN" "http://www.w3.org/Graphics/SVG/1.1/DTD/svg11.dtd">
<svg version="1.1" id="Layer_1" xmlns="http://www.w3.org/2000/svg" xmlns:xlink="http://www.w3.org/1999/xlink" x="0px" y="0px"
	 width="618.21px" height="110.346px" viewBox="0 0 618.21 110.346" enable-background="new 0 0 618.21 110.346"
	 xml:space="preserve">
<path fill="#30353E" d="M82.465,22.711c0-1.317,0.429-2.399,1.267-3.24c0.841-0.839,1.915-1.266,3.241-1.266h32.625
	c3.607,0,6.906,0.662,9.926,1.986c2.989,1.325,5.575,3.153,7.747,5.495c2.158,2.342,3.836,5.14,5.044,8.381
	c1.2,3.246,1.806,6.731,1.806,10.456v58.222c0,2.049-0.693,3.757-2.078,5.126c-1.383,1.385-3.1,2.077-5.14,2.077h-33.699
	c-3.609,0-7.003-0.647-10.192-1.974c-3.182-1.325-5.942-3.152-8.292-5.509c-2.341-2.342-4.168-5.065-5.494-8.188
	c-1.325-3.122-1.987-6.495-1.987-10.104c0-3.595,0.662-6.967,1.987-10.09c1.326-3.122,3.153-5.862,5.494-8.203
	c2.35-2.342,5.11-4.198,8.292-5.59c3.189-1.377,6.583-2.069,10.192-2.069h31.357V45.055c0-5.037-1.317-9.272-3.962-12.696
	c-2.65-3.417-6.318-5.141-11.001-5.141H87.342C84.101,27.218,82.465,25.717,82.465,22.711 M134.561,100.581V67.413h-31.357
	c-2.283,0-4.448,0.455-6.494,1.354c-2.041,0.897-3.816,2.106-5.318,3.594c-1.501,1.517-2.673,3.284-3.52,5.332
	c-0.84,2.032-1.253,4.212-1.253,6.48c0,2.298,0.413,4.418,1.253,6.407c0.847,1.987,2.019,3.726,3.52,5.228
	c1.502,1.502,3.277,2.666,5.318,3.506c2.046,0.854,4.211,1.267,6.494,1.267H134.561z"/>
<path fill="#30353E" d="M156.985,23.072c0-1.318,0.419-2.453,1.26-3.425c0.847-0.958,1.986-1.442,3.432-1.442
	c1.317,0,2.459,0.484,3.416,1.442c0.965,0.972,1.443,2.106,1.443,3.425v3.608c5.655-5.648,14.184-8.476,25.599-8.476h5.59
	c1.436,0,2.613,0.427,3.512,1.266c0.906,0.841,1.354,1.923,1.354,3.24c0,1.326-0.427,2.4-1.266,3.24
	c-0.84,0.848-1.915,1.267-3.239,1.267h-5.951c-8.771,0-15.229,2.343-19.376,7.025c-4.146,4.692-6.223,11.18-6.223,19.472v51.55
	c0,1.326-0.479,2.431-1.443,3.329c-0.957,0.898-2.099,1.354-3.416,1.354c-1.445,0-2.585-0.456-3.432-1.354
	c-0.841-0.898-1.26-2.003-1.26-3.329V23.072z"/>
<path fill="#30353E" d="M227.13,4.875c0-1.333,0.449-2.475,1.347-3.431C229.383,0.485,230.486,0,231.82,0
	c1.318,0,2.452,0.485,3.425,1.444c0.95,0.956,1.437,2.098,1.437,3.431v14.772h23.97c1.562,0,2.799,0.486,3.697,1.443
	c0.912,0.957,1.355,2.106,1.355,3.432c0,1.318-0.443,2.43-1.355,3.328c-0.898,0.899-2.062,1.356-3.513,1.356h-24.154v50.827
	c0,6.731,1.259,11.799,3.784,15.229c2.527,3.432,7.084,5.142,13.705,5.142h6.665c1.45,0,2.614,0.471,3.513,1.441
	c0.912,0.959,1.355,2.107,1.355,3.418c0,1.326-0.443,2.431-1.355,3.329c-0.898,0.898-2.062,1.354-3.513,1.354h-6.665
	c-9.86,0-16.82-2.549-20.915-7.658c-4.087-5.096-6.126-12.52-6.126-22.256V29.207h-9.552c-1.326,0-2.438-0.457-3.337-1.356
	c-0.904-0.898-1.355-2.01-1.355-3.328c0-1.325,0.451-2.475,1.355-3.432c0.899-0.957,2.011-1.443,3.337-1.443h9.552V4.875z"/>
<path fill="#30353E" d="M319.418,105.458c0-1.343,0.428-2.417,1.26-3.258c0.848-0.838,1.923-1.252,3.24-1.252h25.414
	c7.336,0,13.161-1.236,17.491-3.71c4.321-2.446,6.487-6.879,6.487-13.242c0-4.315-1.679-7.806-5.045-10.457
	c-3.365-2.637-8.174-4.381-14.427-5.222l-7.746-0.904c-9.25-0.958-16.468-3.183-21.63-6.674c-5.17-3.476-7.746-9.307-7.746-17.476
	c0-4.447,0.832-8.268,2.519-11.451c1.686-3.181,3.896-5.765,6.679-7.747c2.754-1.986,6.002-3.431,9.721-4.321
	c3.727-0.907,7.637-1.363,11.725-1.363h27.579c1.436,0,2.614,0.428,3.513,1.267c0.898,0.84,1.348,1.931,1.348,3.248
	c0,1.318-0.42,2.407-1.266,3.247c-0.841,0.832-1.909,1.253-3.241,1.253h-27.933c-5.892,0-10.811,1.179-14.773,3.519
	c-3.977,2.342-5.965,6.342-5.965,11.982c0,5.052,1.753,8.63,5.228,10.73c3.492,2.104,9.082,3.637,16.776,4.595l6.842,0.898
	c8.653,1.209,15.435,3.726,20.37,7.57c4.919,3.852,7.394,9.559,7.394,17.13c0,5.053-0.848,9.22-2.533,12.534
	c-1.68,3.299-3.991,5.98-6.931,8.013c-2.953,2.047-6.502,3.49-10.641,4.329c-4.146,0.84-8.742,1.252-13.794,1.252h-25.414
	c-1.317,0-2.393-0.412-3.24-1.252C319.846,107.857,319.418,106.768,319.418,105.458"/>
<path fill="#30353E" d="M398.754,22.711c0-1.317,0.42-2.399,1.252-3.24c0.839-0.839,1.929-1.266,3.241-1.266h32.631
	c3.608,0,6.9,0.662,9.92,1.986c3.005,1.325,5.59,3.153,7.746,5.495c2.158,2.342,3.845,5.14,5.046,8.381
	c1.199,3.246,1.796,6.731,1.796,10.456v58.222c0,2.049-0.691,3.757-2.07,5.126c-1.375,1.385-3.085,2.077-5.132,2.077h-33.705
	c-3.603,0-7.005-0.647-10.18-1.974c-3.188-1.325-5.95-3.152-8.291-5.509c-2.342-2.342-4.183-5.065-5.508-8.188
	c-1.326-3.122-1.975-6.495-1.975-10.104c0-3.595,0.648-6.967,1.975-10.09c1.325-3.122,3.166-5.862,5.508-8.203
	c2.341-2.342,5.104-4.198,8.291-5.59c3.175-1.377,6.577-2.069,10.18-2.069h31.363V45.055c0-5.037-1.317-9.272-3.962-12.696
	c-2.652-3.417-6.312-5.141-11.002-5.141h-32.256C400.367,27.218,398.754,25.717,398.754,22.711 M450.842,100.581V67.413h-31.363
	c-2.284,0-4.448,0.455-6.489,1.354c-2.047,0.897-3.814,2.106-5.316,3.594c-1.503,1.517-2.674,3.284-3.506,5.332
	c-0.854,2.032-1.267,4.212-1.267,6.48c0,2.298,0.413,4.418,1.267,6.407c0.832,1.987,2.003,3.726,3.506,5.228
	c1.502,1.502,3.27,2.666,5.316,3.506c2.041,0.854,4.205,1.267,6.489,1.267H450.842z"/>
<path fill="#30353E" d="M531.842,48.31c0-3.123-0.501-5.98-1.517-8.558c-1.031-2.593-2.379-4.801-4.065-6.672
	c-1.688-1.87-3.669-3.307-5.951-4.33c-2.282-1.016-4.683-1.532-7.209-1.532h-30.274v77.517c0,1.562-0.487,2.812-1.451,3.785
	c-0.957,0.957-2.099,1.429-3.416,1.429c-1.326,0-2.438-0.472-3.345-1.429c-0.898-0.973-1.346-2.105-1.346-3.432V25.951
	c0-2.04,0.698-3.844,2.076-5.405c1.376-1.561,3.211-2.341,5.493-2.341H513.1c3.727,0,7.306,0.662,10.729,1.986
	c3.418,1.325,6.458,3.271,9.096,5.856c2.643,2.584,4.712,5.743,6.224,9.463c1.509,3.726,2.244,7.989,2.244,12.799v56.778
	c0,1.326-0.471,2.459-1.428,3.432c-0.965,0.957-2.106,1.429-3.433,1.429c-1.325,0-2.431-0.472-3.328-1.429
	c-0.905-0.973-1.362-2.105-1.362-3.432V48.31z"/>
<path fill="#30353E" d="M554.405,105.458c0-1.343,0.414-2.417,1.261-3.258c0.83-0.838,1.92-1.252,3.246-1.252h25.415
	c7.319,0,13.152-1.236,17.476-3.71c4.329-2.446,6.487-6.879,6.487-13.242c0-4.315-1.672-7.806-5.038-10.457
	c-3.373-2.637-8.181-4.381-14.418-5.222l-7.748-0.904c-9.263-0.958-16.467-3.183-21.635-6.674
	c-5.164-3.476-7.748-9.307-7.748-17.476c0-4.447,0.84-8.268,2.519-11.451c1.679-3.181,3.909-5.765,6.672-7.747
	c2.77-1.986,6.002-3.431,9.728-4.321c3.726-0.907,7.63-1.363,11.726-1.363h27.571c1.443,0,2.615,0.428,3.514,1.267
	c0.904,0.84,1.354,1.931,1.354,3.248c0,1.318-0.419,2.407-1.258,3.247c-0.849,0.832-1.931,1.253-3.241,1.253h-27.939
	c-5.899,0-10.819,1.179-14.788,3.519c-3.962,2.342-5.942,6.342-5.942,11.982c0,5.052,1.729,8.63,5.221,10.73
	c3.491,2.104,9.08,3.637,16.761,4.595l6.856,0.898c8.653,1.209,15.441,3.726,20.361,7.57c4.929,3.852,7.395,9.559,7.395,17.13
	c0,5.053-0.841,9.22-2.526,12.534c-1.679,3.299-3.99,5.98-6.937,8.013c-2.953,2.047-6.488,3.49-10.627,4.329
	c-4.152,0.84-8.749,1.252-13.793,1.252h-25.415c-1.326,0-2.416-0.412-3.246-1.252C554.819,107.857,554.405,106.768,554.405,105.458"
	/>
<path fill="#27A7DF" d="M304.631,59.282c0,1.413-1.163,2.562-2.577,2.562h-0.596c-1.414,0-2.571-1.148-2.571-2.562V22.859
	c0-1.423,1.157-2.578,2.571-2.578h0.596c1.414,0,2.577,1.155,2.577,2.578V59.282z"/>
<path fill="#27A7DF" d="M281.67,59.238c0,1.414-1.157,2.577-2.571,2.577h-0.611c-1.398,0-2.562-1.163-2.562-2.577V22.815
	c0-1.416,1.164-2.578,2.562-2.578h0.611c1.414,0,2.571,1.162,2.571,2.578V59.238z"/>
<path fill="#27A7DF" d="M285.476,4.978c0-1.443,0.428-2.613,1.275-3.521c0.84-0.897,1.974-1.347,3.426-1.347
	c1.316,0,2.451,0.449,3.422,1.347c0.959,0.907,1.43,2.077,1.43,3.521v3.425c0,1.318-0.471,2.438-1.43,3.336
	c-0.971,0.897-2.105,1.341-3.422,1.341c-1.452,0-2.586-0.443-3.426-1.341c-0.848-0.898-1.275-2.018-1.275-3.336V4.978z
	 M285.476,25.098c0-1.326,0.428-2.46,1.275-3.425c0.84-0.964,1.974-1.451,3.426-1.451c1.316,0,2.451,0.487,3.422,1.451
	c0.959,0.965,1.43,2.099,1.43,3.425v80.579c0,1.312-0.471,2.43-1.43,3.329c-0.971,0.897-2.105,1.34-3.422,1.34
	c-1.452,0-2.586-0.442-3.426-1.34c-0.848-0.899-1.275-2.018-1.275-3.329V25.098z"/>
<path fill="#27A7DF" d="M64.894,74.084c-1.333-3.122-3.166-5.862-5.507-8.203c-2.344-2.342-5.104-4.205-8.294-5.583
	c-3.182-1.384-6.575-2.076-10.184-2.076H9.552V45.055c0-5.037,1.317-9.272,3.962-12.696c2.644-3.417,6.312-5.141,11.002-5.141
	h32.264c3.239,0,4.859-1.501,4.859-4.507c0-1.317-0.426-2.399-1.26-3.24c-0.838-0.839-1.92-1.266-3.246-1.266H24.516
	c-3.608,0-6.914,0.662-9.92,1.986c-3.004,1.325-5.589,3.153-7.746,5.495c-2.166,2.342-3.852,5.14-5.053,8.381
	C0.597,37.307,0,40.799,0,44.523v39.812l0,0c0.023,3.549,0.67,6.863,1.975,9.941c1.325,3.123,3.151,5.847,5.492,8.188
	c2.351,2.343,5.112,4.184,8.302,5.509c3.188,1.326,6.574,1.974,10.183,1.974h14.958c3.608,0,7.002-0.647,10.184-1.974
	c3.19-1.325,5.95-3.166,8.294-5.509c2.341-2.342,4.174-5.065,5.507-8.188c1.311-3.122,1.974-6.495,1.974-10.104
	C66.867,80.579,66.204,77.222,64.894,74.084 M56.234,90.581c-0.841,1.987-2.003,3.726-3.513,5.228
	c-1.495,1.502-3.279,2.666-5.324,3.521c-2.048,0.84-4.198,1.252-6.488,1.252H26.151c-2.276,0-4.44-0.412-6.488-1.252
	c-2.048-0.854-3.815-2.019-5.317-3.521c-1.503-1.502-2.682-3.24-3.52-5.228c-0.84-1.989-1.252-4.125-1.252-6.407
	c0-0.015-0.022-16.761-0.022-16.761h31.357c2.29,0,4.44,0.455,6.488,1.354c2.045,0.897,3.829,2.106,5.324,3.607
	c1.51,1.503,2.672,3.271,3.513,5.318c0.839,2.032,1.266,4.212,1.266,6.48C57.5,86.456,57.073,88.592,56.234,90.581"/>
</svg>